<?xml version="1.0" standalone="no"?>
<!DOCTYPE svg PUBLIC "-//W3C//DTD SVG 1.1//EN"
        "http://www.w3.org/Graphics/SVG/1.1/DTD/svg11.dtd">

<svg xmlns="http://www.w3.org/2000/svg"
     width="200.000000pt" height="345.000000pt" viewBox="0 0 200.000000 345.000000"
     preserveAspectRatio="xMidYMid meet">

    <g transform="translate(0.000000,345.000000) scale(0.100000,-0.100000)"
       fill="#000000" stroke="none">
        <path d="M860 3299 c-273 -35 -500 -177 -629 -392 -226 -378 -188 -930 92
-1336 67 -97 192 -224 287 -290 79 -56 250 -144 337 -174 l52 -18 -19 -50
c-21 -52 -19 -69 5 -69 8 0 16 -4 19 -9 5 -7 66 -583 94 -881 6 -66 9 -75 27
-75 12 0 19 6 18 15 -9 64 -46 416 -69 654 -26 277 -27 289 -9 302 10 7 22 15
27 16 5 2 -2 24 -16 48 -14 25 -26 48 -26 51 0 4 26 17 58 29 186 74 370 195
482 318 243 264 376 663 341 1017 -28 278 -140 512 -314 654 -185 152 -480
226 -757 190z m-117 -297 c55 -30 92 -75 119 -146 23 -59 27 -160 9 -223 -17
-63 -70 -134 -125 -168 -41 -25 -60 -30 -110 -30 -97 1 -167 51 -215 155 -22
47 -26 69 -26 150 0 79 4 102 23 137 46 88 107 139 182 153 48 9 87 2 143 -28z"/>
    </g>
</svg>
