<?xml version="1.0" standalone="no"?>
<!DOCTYPE svg PUBLIC "-//W3C//DTD SVG 20010904//EN"
        "http://www.w3.org/TR/2001/REC-SVG-20010904/DTD/svg10.dtd">
<svg xmlns="http://www.w3.org/2000/svg"
     width="281.000000pt" height="320.000000pt" viewBox="0 0 281.000000 320.000000"
     preserveAspectRatio="xMidYMid meet">

    <g transform="translate(0.000000,320.000000) scale(0.100000,-0.100000)"
       fill="#000000" stroke="none">
        <path d="M1430 3164 c-70 -25 -164 -31 -235 -14 -44 10 -106 -11 -144 -49 -13
-13 -34 -21 -55 -21 -55 0 -82 -15 -89 -48 -4 -20 -28 -48 -75 -88 -38 -33
-122 -104 -186 -159 -82 -70 -131 -121 -163 -168 -25 -37 -43 -71 -39 -74 3
-3 33 -1 66 4 33 5 60 6 60 3 0 -20 -84 -154 -157 -251 l-81 -109 54 0 c30 0
54 -3 54 -6 0 -3 -19 -37 -41 -76 -38 -65 -42 -79 -49 -167 -8 -98 -24 -142
-90 -247 -20 -31 -20 -31 0 -89 24 -70 26 -182 6 -264 -14 -52 -36 -191 -30
-191 1 0 16 13 34 30 31 29 104 59 116 48 3 -3 -5 -42 -17 -86 l-22 -80 36
-59 c42 -69 76 -144 106 -236 13 -37 26 -67 30 -67 3 0 15 15 25 34 27 51 68
58 81 15 11 -34 -5 -57 -70 -104 -36 -25 -101 -80 -145 -123 l-80 -77 -74
-175 c-41 -96 -73 -177 -71 -179 2 -2 23 7 46 20 39 22 43 29 60 96 36 137 87
230 175 315 43 42 140 105 149 96 3 -4 60 -102 205 -351 98 -171 104 -178 129
-172 14 4 27 8 28 9 2 2 -72 128 -163 281 -185 309 -180 291 -93 317 46 13 82
5 101 -24 8 -13 68 -144 133 -293 65 -148 121 -274 125 -278 6 -7 41 4 58 18
2 1 -56 120 -128 264 -79 160 -130 274 -130 292 0 33 20 79 44 98 12 10 27 6
83 -22 103 -52 232 -95 328 -108 110 -15 243 0 368 41 48 17 103 30 120 30 30
0 102 -39 119 -64 18 -26 3 -76 -87 -296 -52 -128 -92 -237 -89 -241 8 -14 50
-11 63 5 6 7 41 98 76 202 94 271 103 293 136 309 37 20 74 19 94 -2 23 -22
17 -56 -56 -320 -32 -118 -59 -217 -59 -218 0 -1 9 -5 20 -8 12 -3 21 1 24 12
72 243 150 499 156 510 5 9 27 -15 73 -80 75 -109 108 -177 146 -309 l27 -94
39 -8 c21 -5 40 -7 42 -4 11 10 -97 275 -149 365 l-60 105 7 93 c4 51 10 95
14 97 4 3 30 -13 59 -35 l52 -40 1 41 c1 22 3 45 4 50 1 6 3 53 4 105 1 82 4
96 19 101 38 12 47 23 55 65 21 109 25 117 73 139 l46 20 -6 42 c-3 24 -8 168
-12 321 l-7 278 44 -6 c24 -4 54 -8 67 -11 19 -4 23 -1 19 13 -3 10 -9 34 -12
53 -12 58 -34 91 -116 176 -44 45 -79 86 -79 92 0 6 14 22 30 35 17 14 30 28
30 32 0 3 -34 43 -75 90 -90 101 -100 121 -81 175 15 44 16 42 -62 95 -24 16
-65 58 -90 94 -56 79 -131 154 -232 236 -53 43 -78 71 -86 95 l-12 35 -100 5
c-110 5 -136 18 -150 72 l-7 28 -59 -36 -59 -35 -46 45 c-26 25 -53 45 -61 45
-8 -1 -44 -12 -80 -25z m165 -89 c102 -7 112 -10 144 -37 32 -28 39 -30 90
-25 31 3 68 9 82 12 23 6 30 1 57 -42 43 -66 84 -106 258 -260 204 -180 196
-169 198 -245 3 -67 27 -128 66 -163 12 -11 28 -32 36 -47 13 -24 12 -32 -1
-64 -23 -55 -19 -67 36 -108 47 -35 109 -115 109 -142 0 -7 -10 -9 -25 -6 -18
3 -25 0 -25 -10 0 -8 -4 -71 -10 -139 -5 -68 -14 -200 -20 -293 -17 -258 -44
-370 -109 -449 -37 -44 -38 -48 -45 -148 -3 -56 -7 -104 -9 -105 -1 -1 -26 3
-55 9 -41 9 -57 8 -70 -1 -78 -57 -194 -70 -246 -29 -24 20 -30 33 -34 80 -2
31 -1 57 2 57 4 0 27 -13 51 -30 24 -16 45 -30 48 -30 9 0 76 148 82 182 9 47
19 42 35 -17 23 -82 28 -74 51 80 6 44 15 84 19 88 9 10 47 -53 70 -115 9 -27
20 -45 23 -41 4 3 7 41 7 83 0 89 -24 194 -75 319 -19 49 -35 92 -35 96 0 4
34 -12 76 -34 57 -31 74 -37 70 -23 -3 9 -56 114 -118 232 -116 223 -120 236
-103 325 8 47 -34 242 -64 291 -10 16 -72 68 -138 115 -118 84 -121 85 -206
98 -48 7 -87 17 -87 21 0 5 18 24 41 43 67 58 148 68 253 31 63 -23 26 11 -40
36 -86 32 -279 25 -405 -15 -16 -5 -18 2 -21 67 l-3 73 -49 -90 c-26 -49 -50
-92 -52 -94 -3 -3 -53 37 -153 123 l-24 21 6 -58 c5 -52 4 -58 -11 -52 -88 38
-125 47 -182 49 -67 1 -120 -9 -120 -22 0 -4 33 -24 73 -44 l72 -36 -45 -11
c-104 -26 -123 -34 -144 -56 -26 -27 -98 -202 -126 -304 -25 -90 -45 -129
-130 -256 -36 -55 -77 -129 -89 -165 -13 -36 -52 -122 -87 -191 -70 -138 -74
-161 -53 -288 10 -66 53 -171 70 -171 5 0 10 26 10 58 1 31 4 71 8 87 6 28 8
29 18 10 24 -45 63 -170 70 -222 l6 -56 36 72 37 72 40 -29 c57 -42 94 -89 94
-121 0 -19 -21 -56 -65 -114 -35 -47 -69 -88 -74 -91 -5 -4 -26 1 -45 11 -30
14 -42 15 -73 5 -20 -6 -38 -10 -39 -9 -1 1 -32 60 -69 132 -67 128 -68 131
-56 173 14 53 14 90 0 131 -6 17 -12 31 -13 31 -2 0 -28 -9 -59 -19 -40 -14
-57 -16 -57 -8 0 7 14 61 30 120 l29 108 -15 92 -15 92 35 75 c23 48 41 109
52 170 17 105 43 189 79 260 26 52 25 60 -15 60 -15 0 -29 3 -32 6 -4 3 32 61
78 129 46 67 92 143 103 168 22 51 17 57 -40 57 -16 0 -29 4 -29 10 0 19 72
89 198 192 274 225 334 263 442 276 70 9 273 7 415 -3z m-374 -664 c30 -10 76
-29 103 -41 56 -25 170 -30 221 -10 61 25 160 60 167 60 5 0 8 -20 8 -45 0
-39 -4 -48 -35 -72 -35 -28 -42 -51 -29 -101 6 -22 8 -22 31 -6 25 15 26 15
55 -20 45 -55 60 -48 36 16 -25 66 -18 118 22 182 16 25 32 46 34 46 26 0 115
-253 136 -382 8 -56 7 -84 -10 -175 -30 -158 -27 -152 -60 -102 -16 23 -36 47
-45 52 -15 8 -16 3 -13 -39 l3 -48 -65 -12 c-36 -7 -69 -13 -73 -13 -4 -1 3
14 17 32 19 25 96 204 96 225 0 1 -6 2 -14 2 -7 0 -47 -52 -87 -116 -40 -63
-77 -118 -81 -120 -4 -3 -12 14 -18 38 -12 41 -11 43 22 69 28 24 31 29 15 34
-9 4 -33 4 -53 0 -56 -10 -32 9 36 30 85 26 77 39 -19 32 -55 -4 -83 -2 -95 6
-9 7 -32 60 -50 117 -23 73 -37 106 -49 108 -22 5 -22 -3 17 -145 18 -68 32
-123 31 -123 -1 0 -28 9 -60 20 -63 22 -111 25 -135 10 -18 -11 -22 -9 110
-45 130 -36 129 -36 105 -45 -11 -4 -45 -1 -75 6 -30 7 -57 10 -60 7 -3 -2 9
-17 27 -33 23 -21 46 -30 87 -35 31 -4 56 -10 56 -13 0 -3 -11 -20 -26 -39
-39 -52 -63 -45 -156 42 -119 112 -138 97 -38 -30 30 -38 40 -59 40 -87 0 -21
-2 -38 -5 -38 -6 0 -204 293 -228 339 -15 26 -17 39 -8 57 9 20 7 23 -12 26
-17 2 -23 12 -28 43 -4 22 -26 91 -48 154 -45 126 -49 156 -24 183 23 26 150
25 224 -1z m799 -214 c19 -75 30 -143 30 -186 0 -75 20 -153 46 -182 16 -18
15 -20 -15 -48 -17 -16 -31 -34 -31 -41 0 -15 29 -71 48 -92 14 -17 13 -18
-10 -18 -14 0 -39 3 -55 6 l-30 6 3 233 c2 213 0 235 -17 262 -15 22 -19 47
-19 113 0 53 3 81 10 74 5 -5 23 -62 40 -127z m-1060 -70 c16 -71 28 -104 46
-122 16 -16 24 -35 24 -60 0 -36 28 -75 54 -75 13 0 129 -138 171 -203 32 -50
9 -38 -62 32 -78 77 -120 96 -179 80 -60 -17 -74 -39 -74 -117 0 -86 20 -154
60 -203 l31 -39 -26 0 c-36 0 -28 -20 16 -43 74 -39 227 3 261 73 10 19 19 39
21 44 2 8 173 -40 380 -105 45 -15 46 -24 7 -44 -42 -22 -49 -20 -90 25 l-38
41 -6 -35 c-10 -54 -19 -57 -156 -46 -68 5 -127 7 -132 4 -14 -9 -170 -245
-165 -250 3 -3 48 2 101 11 53 8 112 15 133 15 40 0 73 -23 73 -51 0 -17 -3
-17 -45 -2 -75 25 -85 11 -32 -46 60 -64 79 -103 75 -154 -2 -31 -8 -43 -21
-45 -25 -5 -261 74 -330 111 -83 44 -151 117 -197 212 -21 44 -42 90 -45 102
l-6 23 46 -20 c65 -28 77 -27 64 7 -6 15 -25 46 -43 68 -18 22 -46 65 -62 95
-27 51 -29 63 -28 160 1 90 7 128 43 264 23 87 44 193 47 235 3 42 7 86 10 99
4 22 42 67 49 60 2 -2 13 -47 25 -101z m624 -439 c8 -34 -22 -68 -59 -68 -14
0 -25 2 -25 5 0 14 66 103 71 97 4 -4 9 -19 13 -34z m-444 -38 c8 -5 12 -11
10 -13 -6 -6 -130 -16 -130 -11 0 2 12 10 28 18 31 17 70 20 92 6z m698 -46
c21 -14 58 -72 50 -79 -23 -21 -136 -85 -158 -90 -78 -17 -153 97 -105 161 14
18 14 17 15 -13 0 -38 17 -85 33 -95 36 -23 64 6 72 77 7 54 8 55 39 55 17 0
42 -7 54 -16z m-734 -54 c4 -28 14 -45 33 -57 l26 -17 -37 -8 c-50 -11 -100
11 -121 52 -19 37 -14 44 35 58 54 16 57 15 64 -28z m-486 -13 c11 -12 31 -45
43 -72 12 -28 35 -65 50 -83 38 -43 45 -75 28 -129 l-14 -46 -66 100 c-104
155 -111 175 -87 228 14 31 19 31 46 2z m622 -2 c0 -15 -47 -51 -55 -43 -2 2
5 19 16 36 19 32 39 35 39 7z m831 -2 c30 -36 -9 -278 -65 -397 -53 -113 -102
-154 -300 -252 -94 -46 -174 -84 -178 -84 -7 0 -48 126 -48 146 0 5 22 27 49
49 28 21 48 42 46 45 -3 4 -25 13 -50 20 -33 9 -45 17 -43 29 2 12 16 17 53
18 28 2 83 5 122 9 l72 6 -29 59 c-34 67 -35 69 -17 69 29 0 105 59 123 96 16
34 100 104 123 104 4 0 15 -31 25 -68 22 -84 31 -101 47 -85 9 9 8 38 -5 125
-9 62 -16 116 -16 121 0 15 78 7 91 -10z m121 -190 c24 -22 23 -58 -4 -83 -31
-29 -46 -25 -54 15 -13 72 16 107 58 68z m-828 -79 c8 -3 34 -30 57 -60 42
-54 64 -69 56 -36 -20 71 -21 68 43 87 33 10 63 16 66 12 10 -10 -19 -76 -44
-100 -22 -21 -35 -22 -203 -27 -98 -3 -179 -2 -179 1 0 4 32 34 72 68 68 58
95 69 132 55z"/>
    </g>
</svg>
