<?xml version="1.0" standalone="no"?>
<!DOCTYPE svg PUBLIC "-//W3C//DTD SVG 20010904//EN"
        "http://www.w3.org/TR/2001/REC-SVG-20010904/DTD/svg10.dtd">
<svg xmlns="http://www.w3.org/2000/svg"
     width="381.000000pt" height="441.000000pt" viewBox="0 0 381.000000 441.000000"
     preserveAspectRatio="xMidYMid meet">

    <g transform="translate(0.000000,441.000000) scale(0.100000,-0.100000)"
       fill="#000000" stroke="none">
        <path d="M2261 4075 c-18 -8 -61 -37 -95 -64 -34 -27 -75 -53 -92 -57 -84 -20
-134 -65 -204 -183 -23 -39 -62 -93 -87 -120 -42 -46 -53 -52 -159 -86 -75
-23 -125 -45 -146 -64 -18 -16 -62 -81 -97 -146 -113 -204 -148 -211 -365 -64
-72 49 -140 89 -149 89 -19 0 -22 -27 -8 -78 5 -17 7 -32 4 -32 -4 0 -44 20
-90 45 -45 25 -84 45 -86 45 -1 0 -4 -14 -5 -31 -3 -40 -18 -67 -53 -101 -16
-15 -29 -37 -29 -50 0 -46 51 -185 109 -298 94 -182 182 -465 198 -633 4 -43
12 -75 24 -88 21 -25 179 -492 179 -531 0 -33 -44 -87 -87 -104 -18 -8 -53
-14 -79 -14 -92 0 -251 -61 -359 -138 -96 -68 -215 -173 -231 -203 -8 -17 -21
-64 -28 -104 -12 -71 -12 -74 8 -79 43 -12 54 -6 75 37 49 100 122 157 203
157 72 0 77 -9 43 -79 -50 -106 -123 -156 -219 -149 l-51 3 0 -35 c0 -34 1
-34 65 -50 l65 -15 45 -88 c25 -49 57 -104 72 -122 38 -46 104 -75 187 -82 51
-4 72 -10 76 -22 4 -9 22 -59 42 -111 19 -52 44 -107 55 -123 27 -38 80 -62
170 -76 94 -15 133 -6 216 49 33 22 61 40 64 40 2 0 39 -35 83 -78 150 -147
195 -161 530 -169 277 -6 379 3 452 38 55 27 139 102 190 171 l35 49 42 -39
c81 -75 181 -90 275 -43 55 28 84 71 115 171 46 144 44 140 85 140 106 0 166
47 228 176 24 50 43 96 43 102 0 6 29 20 65 32 107 36 129 86 102 229 l-17 85
-112 109 c-104 101 -122 114 -226 163 -90 44 -122 54 -163 54 -65 0 -110 27
-144 84 -14 24 -25 45 -25 49 0 3 55 54 123 113 67 59 130 115 141 125 18 16
16 17 -38 30 -31 7 -59 16 -62 20 -3 5 21 48 54 96 32 49 68 104 80 123 20 33
162 598 162 644 0 11 -7 40 -17 64 -14 38 -15 69 -6 285 5 133 6 246 2 251 -5
5 -16 -6 -26 -24 -29 -53 -63 -89 -116 -125 -47 -32 -52 -33 -121 -28 -53 4
-91 0 -153 -16 -98 -25 -146 -27 -168 -4 -9 9 -33 51 -52 92 -28 60 -54 93
-117 156 -49 49 -119 135 -177 219 -52 77 -99 141 -105 143 -5 2 -17 -17 -27
-42 -33 -79 -47 -55 -47 76 0 49 -3 89 -6 89 -3 0 -14 -5 -25 -10 -30 -17 -24
2 27 81 25 39 43 73 41 75 -13 13 -76 12 -106 -1z m-77 -446 c31 -86 45 -184
52 -359 l7 -175 -21 19 c-40 35 -56 98 -48 191 5 74 3 93 -20 164 -24 76 -25
85 -14 152 13 77 18 78 44 8z m1217 -386 c-11 -16 -45 -55 -75 -88 l-54 -60
-13 28 c-12 26 -11 29 26 60 50 42 116 87 127 87 5 0 0 -12 -11 -27z m-2304
-166 c80 -61 155 -171 187 -274 7 -21 4 -23 -32 -23 -41 0 -58 12 -64 45 -2
14 3 21 20 23 12 2 22 6 22 8 0 3 -47 57 -105 121 -57 64 -102 119 -99 124 9
16 28 9 71 -24z m-38 -82 c41 -52 49 -67 36 -71 -21 -8 -54 22 -76 71 -17 37
-24 65 -16 65 2 0 27 -29 56 -65z m1647 -137 c238 -170 344 -359 344 -611 0
-128 -24 -216 -104 -370 -105 -206 -143 -352 -155 -608 -8 -156 -10 -171 -38
-230 -37 -77 -95 -142 -303 -338 -217 -204 -252 -231 -302 -231 -22 0 -53 8
-69 17 -17 10 -80 93 -156 206 -126 186 -128 190 -128 246 l0 56 30 -4 c67 -7
89 -36 110 -145 18 -98 52 -158 109 -191 76 -44 183 -28 242 37 12 12 44 61
72 108 63 107 133 180 210 219 102 52 123 99 97 223 -23 110 -20 127 27 193
23 32 37 60 31 62 -6 2 -30 14 -54 26 l-44 22 -1 135 c-1 95 -7 157 -20 210
l-19 75 -6 -75 c-4 -41 -7 -128 -8 -193 -1 -128 -13 -173 -52 -201 -27 -19
-76 -21 -81 -4 -3 7 -21 1 -52 -17 l-47 -28 -20 22 c-17 18 -31 21 -107 21
-52 0 -93 -5 -99 -11 -19 -19 -55 -2 -111 51 -71 68 -112 134 -112 182 0 20 7
85 16 143 8 58 14 120 12 137 -3 31 -4 30 -20 -22 -9 -30 -26 -101 -39 -157
-22 -101 -33 -132 -43 -122 -3 3 -17 72 -31 155 -14 82 -37 185 -51 228 -39
124 -49 215 -35 310 21 134 94 300 164 374 38 39 92 43 152 10 182 -99 227
-111 318 -84 76 22 128 64 199 161 34 47 67 84 74 81 6 -2 51 -33 100 -68z
m-859 -1314 c-1 -16 5 -31 16 -38 15 -9 21 -7 35 12 18 23 18 23 36 3 18 -19
17 -21 -9 -47 -22 -22 -32 -25 -63 -20 -43 6 -72 37 -72 75 0 34 7 41 36 41
18 0 22 -5 21 -26z m763 -79 c26 -31 -23 -95 -72 -95 -30 0 -78 38 -78 62 0 7
9 19 20 26 18 11 21 9 30 -13 15 -39 60 -26 60 17 0 22 23 24 40 3z m-1395
-36 c0 -19 -336 -184 -404 -198 -30 -6 -68 -11 -84 -11 -30 0 -30 0 -11 21 29
32 153 105 219 128 88 32 258 80 270 77 6 -2 10 -9 10 -17z m1868 -29 c122
-43 200 -87 254 -142 36 -37 37 -38 12 -38 -58 0 -137 32 -274 110 -105 61
-145 89 -145 103 0 21 -7 23 153 -33z m-2204 36 c-2 -2 -89 -46 -194 -99 -159
-80 -183 -90 -150 -60 54 47 154 102 245 135 67 24 111 35 99 24z m2466 -46
c74 -36 201 -127 192 -136 -4 -4 -305 170 -317 183 -12 13 51 -11 125 -47z
m-1264 20 c13 -8 19 -21 19 -46 0 -39 -16 -73 -71 -156 -22 -31 -39 -64 -39
-72 0 -37 148 -106 226 -106 88 0 164 59 164 127 0 25 -9 39 -45 69 -58 47
-62 84 -12 114 17 11 47 20 65 20 44 0 173 -36 190 -54 20 -20 35 -163 19
-193 -9 -17 -43 -37 -122 -69 -186 -76 -273 -88 -403 -59 -99 23 -163 61 -187
112 -15 33 -26 42 -45 43 -70 1 -90 27 -90 114 0 82 16 95 156 132 136 36 148
38 175 24z m169 -70 l0 -80 -46 0 c-44 0 -45 1 -40 28 3 15 8 44 12 65 4 21
15 44 27 52 41 29 47 20 47 -65z m-1225 -156 c77 -14 150 -32 161 -40 13 -7
31 -39 43 -75 l21 -62 -83 6 c-45 4 -171 12 -279 18 -218 14 -213 11 -179 77
23 45 46 66 91 86 47 21 63 20 225 -10z m2265 4 c33 -17 51 -35 68 -68 39 -78
43 -75 -145 -89 -93 -6 -200 -14 -240 -18 l-72 -6 16 59 c9 32 21 65 28 72 14
16 217 66 280 71 12 0 41 -9 65 -21z m216 -23 c40 -7 54 -23 102 -120 34 -68
38 -81 25 -89 -25 -14 -108 -1 -141 22 -26 19 -112 164 -112 189 0 10 70 9
126 -2z m-2525 -180 c166 -12 196 -17 268 -45 78 -30 93 -42 71 -55 -5 -3 -84
-19 -175 -34 -92 -16 -169 -32 -173 -35 -3 -4 -1 -11 4 -16 6 -6 45 -4 104 5
185 26 216 28 273 11 57 -17 115 -64 142 -117 12 -23 13 -30 3 -34 -7 -3 -37
-13 -67 -23 -54 -18 -80 -42 -44 -42 10 0 68 14 128 30 146 40 160 39 204 -9
50 -53 334 -171 413 -171 74 0 317 114 366 171 20 23 43 39 55 39 12 0 68 -14
124 -31 100 -31 139 -32 98 -3 -11 8 -37 20 -57 26 -43 13 -44 17 -22 61 54
106 120 127 312 99 108 -16 148 -14 129 5 -3 3 -66 17 -139 32 -134 27 -158
35 -158 51 0 15 72 51 129 65 50 13 288 35 369 35 l33 0 -7 -48 c-5 -41 -1
-60 26 -122 48 -109 42 -162 -22 -193 -42 -20 -54 -10 -60 54 -7 68 -32 92
-91 92 -83 -2 -197 -71 -211 -129 -9 -32 9 -71 54 -120 60 -65 65 -114 16
-167 -18 -20 -35 -27 -61 -27 -31 0 -39 6 -68 47 -97 139 -131 172 -194 180
-47 6 -143 -28 -185 -66 -37 -33 -45 -85 -29 -201 13 -98 4 -126 -49 -152 -45
-23 -104 -22 -157 2 -47 21 -61 44 -88 144 -20 74 -53 106 -107 106 -22 0 -52
-7 -68 -16 -25 -16 -60 -70 -60 -95 0 -6 -10 -33 -22 -61 -18 -43 -29 -54 -72
-74 -84 -39 -196 -28 -237 24 -17 22 -20 35 -15 77 19 159 19 177 1 212 -28
51 -130 98 -215 98 -93 0 -126 -20 -216 -131 -69 -84 -80 -94 -110 -94 -72 0
-115 39 -117 106 -1 32 6 43 50 83 28 25 56 56 63 69 36 72 -56 155 -201 182
-96 18 -149 -22 -149 -113 0 -43 -19 -52 -64 -33 -75 31 -84 92 -30 193 32 60
35 74 31 121 l-6 52 47 0 c26 0 131 -7 233 -15z"/>
    </g>
</svg>
