<?xml version="1.0" standalone="no"?>
<!DOCTYPE svg PUBLIC "-//W3C//DTD SVG 20010904//EN"
        "http://www.w3.org/TR/2001/REC-SVG-20010904/DTD/svg10.dtd">
<svg xmlns="http://www.w3.org/2000/svg"
     width="331.000000pt" height="301.000000pt" viewBox="0 0 331.000000 301.000000"
     preserveAspectRatio="xMidYMid meet">
    <g transform="translate(0.000000,301.000000) scale(0.100000,-0.100000)">
        <path d="M1624,2835c-27-14-78-35-114-46c-99-33-174-74-277-151c-150-113-155-118-197-244c-21-63-61-153-93-210
		c-49-85-58-108-61-162c-5-79,9-118,94-253c74-119,81-139,119-343c21-106,26-153,18-165c-5-9-42-38-80-66c-39-27-116-88-172-135
		C738,958,729,953,555,896c-191-63-233-96-313-247c-62-117-82-181-82-259c0-60,2-70,18-70c31,0,39,14,46,84c7,66,73,269,86,264
		c4-2,44-46,90-98c94-109,107-120,133-120c16,0,14,7-19,53c-53,74-157,197-166,197c-22,0-3,41,32,69c65,52,168,87,318,106l53,7
		l-3-68l-3-69l-93-21c-110-25-125-35-89-59c18-11,52-17,118-19c115-3,167-24,242-95c54-51,91-68,126-56c25,8,24,14-25,164
		c-34,104-99,241-114,241c-5,0-28-31-52-70c-24-38-46-69-50-70c-5,0-8,30-8,68c1,91,22,135,101,203c92,80,211,170,216,165
		c3-3-19-44-47-93c-29-48-62-103-73-122l-20-33l21,11c11,6,24,16,27,21c3,6,11,10,17,10c7,0,8-26,3-79c-10-119,28-361,64-405
		c6-7,33-18,62-25c51-13,237-130,496-313c61-43,127-85,147-93c28-12,84-15,257-15c207,0,221,1,214,18c-30,78-48,147-53,199
		c-5,62-4,63,30,95c27,25,37,44,42,80c10,69,26,77,91,45l54-26l22,72c36,120,51,242,46,355l-5,103l34-26c19-14,34-24,34-21
		c0,2-27,50-61,107c-34,56-64,110-67,118c-6,16,89-48,195-131c89-70,132-169,114-263c-6-28-7-28-50,40c-25,39-46,72-48,74
		c-7,11-35-27-66-92c-34-68-87-216-87-241c0-7,20-22,45-34l46-22l30,35c17,19,60,49,95,66c56,28,77,33,155,35c64,2,98,7,116,19
		c36,24,19,36-85,60l-87,20l-3,68c-3,79-11,77,134,47c116-23,214-68,252-116c29-37,31-38,51-25s-1,44-60,91c-38,30-79,48-167,76
		c-143,44-230,88-313,159c-35,30-108,87-161,126c-54,39-101,76-105,82c-10,17-5,69,22,214c30,154,46,195,133,336
		c95,154,101,216,35,337c-63,113-90,174-123,271c-17,52-41,104-53,117s-80,67-151,120c-106,80-144,101-220,128c-50,18-122,44-159,58
		c-56,22-85,26-166,26C1687,2860,1667,2857,1624,2835z M1975,2778c33-14,104-45,159-67c54-23,122-57,150-75c69-44,168-152,199-218
		c30-61,97-309,96-353c0-16-16,27-34,96c-33,125-60,191-96,238c-26,33-24,20,15-89c60-168,62-202,26-460c-47-343-71-475-84-453
		c-6,10-11,63-11,118c0,96,1,102,33,151c40,64,42,115,7,183c-23,43-27,67-36,222c-25,433-27,447-76,434c-20-5-36,5-81,46
		c-122,112-202,156-353,194c-103,27-105,27-180,11c-150-32-266-93-376-198c-55-54-65-59-92-53s-32,3-41-20c-10-26-30-259-30-345
		c1-35,3-41,11-27c27,47,81-11,60-66c-12-30-48-37-57-12c-13,34-24,11-24-52c0-55-6-80-30-131c-17-35-30-76-30-91c0-16,16-57,35-93
		s37-84,41-107c6-40-12-157-26-166c-3-2-12,37-19,88c-6,51-28,189-48,307c-45,276-43,345,15,515c22,64,35,111,27,105
		c-28-23-87-162-113-265c-15-60-28-100-30-88s15,93,38,180c35,136,47,167,86,225c52,76,137,159,195,189c91,46,338,148,369,152
		c19,3,82,4,140,3C1897,2804,1925,2799,1975,2778z M1596,2485c12-50-20-85-65-70c-40,12-39,89,2,104C1562,2530,1588,2516,1596,2485z
		 M2058,2473c6-58-53-85-84-38c-14,21-14,30-4,55c6,16,19,31,28,33C2026,2529,2055,2505,2058,2473z M1268,2459c7-13,11-41,8-63
		c-11-92-72-80-70,14C1207,2485,1240,2512,1268,2459z M2344,2468c28-40,14-138-19-138c-22,0-47,63-39,98
		C2302,2492,2319,2504,2344,2468z M1570,2320c24-24,25-48,4-78c-19-28-49-28-68,0c-22,32-20,64,6,82C1541,2344,1546,2344,1570,2320z
		 M2048,2324c41-28,20-104-28-104c-26,0-53,43-45,69c7,22,32,51,43,51C2022,2340,2036,2333,2048,2324z M1566,2125c21-32,11-72-21-87
		c-50-22-87,51-48,94C1520,2157,1547,2155,1566,2125z M1716,2125c21-32,11-72-21-87c-50-22-87,51-48,94
		C1670,2157,1697,2155,1716,2125z M1914,2134c37-37,3-114-44-99c-27,9-42,48-30,79C1854,2151,1888,2160,1914,2134z M2064,2134
		c31-30,11-104-27-104c-34,1-61,48-48,83C2004,2151,2038,2160,2064,2134z M2379,2116c17-21,9-77-12-90c-15-9-21-7-33,8
		C2297,2084,2341,2162,2379,2116z M966,1978c62-106,66-116,58-152c-6-29-7-29-21-10c-36,47-93,176-93,209c0,19,2,35,4,35
		S939,2023,966,1978z M2641,1982c-12-47-89-182-103-182c-15,0-8,66,11,100c69,129,84,151,94,141C2651,2033,2651,2017,2641,1982z
		 M1637,1960c140-20,317-7,400,30l44,19l-29-35c-108-131-267-177-397-114c-48,23-165,124-165,142c0,5,18-1,40-12
		C1551,1979,1600,1966,1637,1960z M1466,1916c59-27,121-95,130-143c21-114-89-234-218-236c-43-1-54,3-74,26c-29,34-64,145-63,201
		c0,62,29,127,68,153C1353,1946,1401,1946,1466,1916z M2262,1914c76-68,77-242,3-340c-31-40-66-49-126-31c-102,31-179,112-179,188
		c0,72,60,151,145,191C2155,1945,2231,1941,2262,1914z M1178,1798c13-13,16-56,6-82c-3-9-16-16-29-16c-25,0-35,17-35,59
		c0,28,16,51,35,51C1161,1810,1171,1805,1178,1798z M2438,1782c17-50-19-100-53-72c-8,7-15,23-15,37C2370,1808,2420,1834,2438,1782z
		 M1809,1731c9-6,1-10-27-13c-32-3-38-1-30,9C1764,1742,1789,1744,1809,1731z M1834,1657c47-58,95-163,103-225c8-71-9-94-91-122
		c-61-20-67-20-119-5c-98,28-120,69-93,169c28,99,112,226,150,226C1792,1700,1815,1681,1834,1657z M1272,1533c22-20,24-66,3-83
		c-36-30-78,34-50,76C1243,1554,1248,1555,1272,1533z M2338,1519c11-18,11-31,3-51c-14-38-45-37-61,2c-10,25-10,34,4,56
		C2304,1555,2319,1553,2338,1519z M1487,1473c-67-87-155-225-184-290c-30-64-32-62-47,42l-6,50l129,127c71,71,135,128,141,128
		S1511,1504,1487,1473z M2094,1491c76-59,131-110,176-166c41-50,41-50,34-115c-3-36-9-69-11-74c-3-4-27,32-53,82
		c-51,96-92,161-149,232c-59,73-64,80-56,80C2040,1530,2066,1512,2094,1491z M1220,1379c0-9-6-22-13-28c-11-8-18-6-31,8
		c-17,18-17,21-1,45c16,25,18,25,31,9C1213,1403,1220,1388,1220,1379z M2390,1399c16-28-14-77-36-58c-15,13-17,9-8-15
		c9-23,30-20,49,7c16,21,16,21,10-23c-34-226-143-443-295-583c-97-91-195-127-339-127c-132,0-242,48-341,149
		c-147,150-238,341-274,576c-5,34-5,37,5,20c21-34,33-36,56-8l22,27l-5-59c-3-33-6-77-9-98c-2-22,1-52,7-68c12-35,45-56,61-40
		c17,17,64,13,71-5c3-9,6-35,6-58c0-62,26-84,83-69c23,6,42,11,43,10c0-1,18-48,39-105c85-227,106-248,245-246c92,1,137,16,165,56
		c8,13,38,82,66,153c28,72,53,133,55,136c2,4,22,1,45-5c39-10,42-9,66,18c20,24,24,37,20,67l-5,38l51,3c46,3,53,6,71,38
		c18,29,21,53,22,140C2336,1400,2360,1456,2390,1399z M1550,1230c11-11,20-30,20-42c0-25-27-58-48-58c-24,0-52,31-52,57
		c0,23,31,63,50,63C1526,1250,1539,1241,1550,1230z M2068,1234c43-30,18-109-32-102c-30,4-50,51-35,80
		C2022,1252,2036,1257,2068,1234z M1725,1186c19-29,11-72-17-87c-29-16-68,13-68,51C1640,1206,1696,1230,1725,1186z M1918,1178
		c14-31,3-72-24-82s-64,20-64,54C1830,1209,1893,1230,1918,1178z M1465,1086c37-27,15-106-31-106c-22,0-44,30-44,60s22,60,44,60
		C1441,1100,1455,1094,1465,1086z M2155,1086c37-27,15-106-31-106c-40,0-58,68-27,102C2116,1104,2130,1105,2155,1086z M1728,1008
		c15-32,0-73-29-81c-28-7-59,20-59,53C1640,1039,1703,1060,1728,1008z M1918,1008c14-30,1-72-26-83c-25-10-62,22-62,55
		C1830,1039,1893,1060,1918,1008z M1726,845c19-30,9-66-24-84c-28-15-62,12-62,49C1640,867,1696,890,1726,845z M1918,838
		c14-31,3-72-24-82s-64,20-64,54C1830,869,1893,890,1918,838z M1339,792c46-57,112-113,238-197c168-114,247-114,423,0
		c72,46,220,184,252,235l16,25l36-35c76-73,68-165-22-238c-96-78-127-109-179-179l-54-73h-65c-68,0-106-13-138-49
		c-46-51-137-46-202,11c-30,26-46,32-104,37c-39,4-75,12-81,18s-14,38-18,72c-4,33-11,64-15,68c-4,5-38,8-74,8h-67l-5,110
		c-3,61-12,131-20,157c-13,43-12,49,5,68c10,11,22,19,26,18C1295,846,1316,821,1339,792z"/>
        <path d="M1079,2033c-13-36,1-87,25-91c24-5,36,14,36,59C1140,2060,1098,2082,1079,2033z"/>
        <path d="M2436,2038c-20-28-20-58-2-84c32-43,74,34,46,86C2466,2066,2455,2065,2436,2038z"/>
        <path d="M1738,1479c-24-13-23-56,1-69c53-28,124,6,102,48C1824,1490,1774,1500,1738,1479z"/>
    </g>
</svg>
