<?xml version="1.0" standalone="no"?>
<!DOCTYPE svg PUBLIC "-//W3C//DTD SVG 20010904//EN"
        "http://www.w3.org/TR/2001/REC-SVG-20010904/DTD/svg10.dtd">
<svg xmlns="http://www.w3.org/2000/svg"
     width="252.000000pt" height="281.000000pt" viewBox="0 0 252.000000 281.000000"
     preserveAspectRatio="xMidYMid meet">

    <g transform="translate(0.000000,281.000000) scale(0.100000,-0.100000)"
       fill="#000000" stroke="none">
        <path d="M1060 2640 c-317 -29 -331 -32 -401 -95 -27 -24 -56 -37 -109 -49
-40 -9 -82 -22 -94 -28 -41 -22 -268 -243 -286 -279 -13 -24 -27 -104 -44
-240 -49 -393 -48 -380 -31 -533 9 -78 18 -164 21 -192 5 -54 101 -258 122
-260 7 -1 13 -3 15 -4 1 -1 76 -12 167 -24 l165 -21 3 -73 c3 -84 9 -79 -124
-112 -62 -15 -434 -80 -459 -80 -3 0 -5 -139 -5 -310 l0 -310 730 0 c402 0
730 2 730 5 0 2 -36 45 -80 95 -44 50 -80 94 -80 98 0 8 166 152 175 152 3 0
5 -79 5 -175 l0 -175 110 0 110 0 0 131 0 131 28 -8 c15 -4 43 -8 62 -8 32 -1
36 2 44 36 6 23 6 62 0 103 -11 68 -1 83 23 34 16 -34 37 -183 29 -214 -4 -14
-29 -65 -57 -113 l-49 -87 331 -3 c183 -1 334 0 337 2 2 3 -9 42 -24 88 -15
46 -28 88 -28 93 -1 6 -18 28 -38 50 -20 22 -37 43 -37 48 -2 27 -216 189
-418 315 -121 76 -141 98 -115 128 5 5 23 46 41 91 49 123 65 133 300 200 l64
18 23 75 c18 57 22 88 17 128 -4 41 -2 60 13 87 l18 34 -42 173 c-63 257 -80
347 -98 518 -9 85 -19 164 -24 175 -9 25 -502 361 -573 392 -66 28 -93 28
-467 -7z m551 -121 c118 -59 207 -160 252 -285 14 -39 36 -137 48 -218 l23
-146 -23 -54 c-12 -31 -21 -69 -19 -87 3 -31 0 -33 -35 -41 -84 -18 -156 -75
-194 -153 -11 -22 -33 -75 -48 -118 -15 -43 -33 -76 -39 -74 -6 2 -17 50 -24
108 -7 57 -18 109 -23 114 -11 11 -32 -10 -62 -65 -12 -22 -21 -30 -28 -23
-11 11 16 149 31 158 5 3 58 7 117 9 87 3 117 8 151 25 72 37 104 113 84 200
-6 25 -9 48 -6 50 2 2 16 -1 31 -7 24 -10 22 -6 -14 26 -88 81 -219 92 -400
34 -51 -16 -93 -27 -93 -23 0 15 59 60 125 96 39 20 77 44 85 52 28 28 -92 8
-171 -28 -97 -45 -146 -44 -238 4 -115 60 -148 44 -64 -30 l48 -41 -147 33
c-81 19 -156 39 -167 45 -83 44 -34 223 75 275 20 9 152 46 293 81 205 51 264
70 296 93 45 33 53 32 136 -10z m-553 -583 c15 -8 38 -26 51 -40 20 -22 23
-32 19 -79 -2 -30 -14 -73 -27 -97 -23 -45 -299 -342 -311 -335 -4 2 -10 29
-13 59 -10 101 -80 215 -176 288 l-34 26 48 24 47 25 47 -50 c81 -88 169 -109
266 -63 119 55 144 120 75 196 -54 60 -51 77 8 46z m-139 -20 c56 -29 67 -102
22 -147 -78 -77 -200 14 -147 110 15 26 51 50 79 51 10 0 30 -6 46 -14z m695
-7 c32 -15 61 -69 53 -101 -11 -44 -39 -69 -84 -75 -37 -5 -46 -2 -73 25 -76
77 5 196 104 151z m-317 -162 c11 -22 19 -74 24 -167 5 -74 11 -161 15 -193
l6 -59 49 7 c56 8 61 0 30 -51 -54 -89 -197 -127 -232 -62 -10 18 -6 32 22 87
l34 66 6 205 c3 113 7 206 8 208 3 8 23 -13 38 -41z m-730 -64 c91 -43 156
-209 120 -308 l-14 -39 -6 74 c-3 41 -13 92 -21 112 -21 49 -71 105 -124 139
-26 16 -38 29 -30 32 23 9 39 7 75 -10z m1361 -51 c8 -6 2 -13 -22 -24 -86
-42 -137 -111 -182 -250 -15 -49 -32 -88 -36 -88 -27 0 -21 133 10 204 25 54
96 134 137 152 34 15 74 17 93 6z m-1388 -51 c40 -28 70 -80 70 -120 l0 -36
-21 42 c-11 23 -43 62 -70 88 -27 25 -49 48 -49 51 0 9 44 -7 70 -25z m1450
-36 c0 -1 -22 -16 -49 -32 -60 -38 -107 -105 -137 -197 l-23 -71 -1 66 c0 122
50 206 141 233 37 11 69 12 69 1z m257 -147 c-3 -8 -6 -5 -6 6 -1 11 2 17 5
13 3 -3 4 -12 1 -19z m-657 -150 c56 -60 -21 -105 -99 -57 l-34 20 29 30 c34
35 75 38 104 7z m270 -95 c0 -146 -41 -265 -119 -345 -32 -32 -62 -58 -68 -58
-12 0 -32 139 -40 280 -5 91 -4 97 18 123 26 29 77 44 162 46 l47 1 0 -47z
m-283 -176 c29 -29 46 -308 22 -361 -14 -30 -70 -58 -107 -54 -33 4 -57 49
-66 121 -5 46 -44 128 -67 142 -23 15 -74 -83 -85 -163 -5 -41 -10 -52 -23
-50 -41 8 -64 126 -50 265 5 54 12 104 14 112 4 11 36 12 178 6 108 -4 176
-11 184 -18z m-679 -278 c119 -100 221 -191 225 -202 5 -13 4 -33 -2 -50 l-11
-27 -87 56 c-336 215 -345 224 -351 335 -3 38 -1 69 3 69 3 0 104 -81 223
-181z m326 -306 c9 -47 14 -88 12 -90 -2 -2 -20 10 -40 27 -26 24 -36 40 -36
62 0 29 27 88 41 88 4 0 14 -39 23 -87z"/>
        <path d="M842 1874 c-27 -18 -28 -55 -4 -77 24 -22 55 -21 75 1 22 24 21 32
-2 32 -22 0 -45 25 -37 39 11 17 -10 21 -32 5z"/>
        <path d="M1542 1865 c-12 -9 -22 -27 -22 -40 0 -52 65 -74 95 -32 15 21 14 22
-10 25 -18 2 -27 11 -32 33 -8 28 -9 29 -31 14z"/>
    </g>
</svg>
