<?xml version="1.0" standalone="no"?>
<!DOCTYPE svg PUBLIC "-//W3C//DTD SVG 20010904//EN"
        "http://www.w3.org/TR/2001/REC-SVG-20010904/DTD/svg10.dtd">
<svg xmlns="http://www.w3.org/2000/svg"
     width="512.000000pt" height="512.000000pt" viewBox="0 0 512.000000 512.000000"
     preserveAspectRatio="xMidYMid meet">

    <g transform="translate(0.000000,512.000000) scale(0.100000,-0.100000)"
       fill="#000000" stroke="none">
        <path d="M4874 5039 c-33 -36 -185 -154 -275 -212 -185 -121 -354 -188 -521
-207 l-93 -11 -1957 -1957 c-2143 -2143 -2009 -2001 -2010 -2121 0 -92 34
-146 204 -318 84 -85 167 -163 185 -174 98 -61 360 -8 650 131 320 153 551
313 724 502 98 107 256 317 339 450 123 196 240 463 240 546 0 23 31 -4 233
-205 l232 -232 206 217 c113 119 264 281 334 360 70 78 129 142 130 142 2 0
-15 -55 -38 -122 -37 -112 -41 -132 -41 -228 -1 -121 14 -160 83 -223 102 -92
233 -60 305 73 23 43 30 71 34 130 4 80 7 67 -78 290 -27 68 -33 100 -34 160
0 148 54 268 248 544 506 721 801 1359 907 1956 23 128 39 504 22 521 -6 6
-17 2 -29 -12z m-704 -631 c0 -13 19 -117 41 -233 32 -165 42 -235 43 -327 1
-104 -1 -119 -20 -145 -19 -24 -28 -28 -70 -28 -41 1 -67 10 -152 58 -126 70
-185 87 -229 64 -66 -35 -78 -121 -53 -384 21 -213 -17 -479 -110 -788 -84
-277 -110 -335 -198 -443 -109 -135 -359 -417 -490 -552 l-111 -115 -413 412
-413 413 1040 1040 c732 732 1047 1040 1065 1043 61 10 70 8 70 -15z"/>
        <path d="M3314 1179 c-22 -27 -82 -155 -118 -253 -30 -79 -37 -113 -37 -167 0
-146 84 -234 196 -209 85 19 126 83 126 198 1 77 -32 181 -110 346 -37 79 -48
96 -57 85z"/>
    </g>
</svg>
