<?xml version="1.0" standalone="no"?>
<!DOCTYPE svg PUBLIC "-//W3C//DTD SVG 20010904//EN"
        "http://www.w3.org/TR/2001/REC-SVG-20010904/DTD/svg10.dtd">
<svg xmlns="http://www.w3.org/2000/svg"
     width="236.000000pt" height="326.000000pt" viewBox="0 0 236.000000 326.000000"
     preserveAspectRatio="xMidYMid meet">

    <g transform="translate(0.000000,326.000000) scale(0.100000,-0.100000)"
       fill="#000000" stroke="none">
        <path d="M1138 3185 c-68 -22 -214 -123 -315 -218 -152 -144 -238 -265 -357
-504 -114 -226 -186 -418 -252 -668 -63 -242 -46 -321 111 -510 83 -99 86
-108 110 -274 14 -97 15 -116 3 -127 -8 -8 -76 -43 -152 -79 -149 -69 -186
-90 -186 -105 0 -5 26 -29 59 -54 60 -47 113 -117 146 -196 35 -84 34 -84 165
-54 86 20 130 25 177 21 61 -6 62 -5 114 35 36 30 59 58 76 96 22 50 25 53 55
50 48 -5 54 -26 46 -174 -11 -219 -9 -367 5 -394 12 -24 16 -25 131 -28 181
-5 171 -10 260 122 42 62 76 115 76 117 0 2 -20 3 -45 1 -40 -4 -45 -2 -51 22
-4 19 4 41 32 88 47 77 101 132 269 272 155 130 165 140 165 176 0 37 14 46
84 54 87 10 100 21 48 41 -77 31 -49 84 68 128 161 60 250 121 282 194 28 64
42 286 28 443 -21 232 -56 348 -189 628 -48 103 -130 279 -181 392 -52 113
-109 229 -128 257 -61 95 -188 191 -310 235 -76 28 -274 35 -344 13z m257
-337 c164 -53 265 -173 300 -353 24 -124 25 -126 35 -120 10 6 16 -35 29 -177
7 -84 12 -103 39 -144 37 -55 47 -97 39 -164 -12 -98 -56 -125 -191 -118 -85
5 -135 23 -194 73 -16 14 -32 25 -35 25 -10 0 45 -93 79 -136 19 -24 58 -54
91 -71 44 -22 59 -35 61 -54 2 -13 -33 -134 -77 -269 -96 -297 -134 -436 -161
-600 -41 -247 -55 -281 -122 -316 -42 -22 -54 -17 -93 37 -41 54 -55 98 -266
784 -61 198 -115 368 -121 378 -5 9 -30 41 -55 69 -66 74 -87 127 -87 218 -1
98 22 148 114 250 79 88 91 119 66 180 -23 57 -20 127 9 219 81 256 293 370
540 289z"/>
        <path d="M1023 2493 c-32 -12 -7 -23 51 -21 71 2 110 -16 126 -57 5 -13 12
-58 16 -100 4 -42 10 -73 14 -68 4 4 15 49 24 98 10 50 20 99 23 110 6 20 5
20 -16 1 -19 -17 -23 -18 -38 -4 -36 32 -83 48 -135 47 -29 0 -59 -3 -65 -6z"/>
        <path d="M1066 2399 c-14 -11 -67 -80 -116 -154 -50 -74 -109 -148 -134 -168
-78 -64 -98 -149 -50 -206 21 -25 33 -31 65 -31 81 0 180 72 255 185 82 123
109 314 53 374 -25 26 -39 27 -73 0z"/>
        <path d="M1335 2386 c-40 -40 -50 -92 -31 -167 48 -190 176 -335 306 -346 87
-8 150 31 150 94 0 40 -46 96 -112 134 -71 42 -87 62 -148 188 -56 116 -113
149 -165 97z"/>
        <path d="M1677 2282 c-15 -15 -27 -31 -27 -35 0 -17 64 -77 82 -77 18 0 20 4
14 32 -13 63 -27 108 -35 108 -4 0 -19 -13 -34 -28z"/>
        <path d="M1185 1911 c-17 -10 -41 -38 -54 -63 -48 -89 -6 -123 136 -111 85 7
98 19 82 75 -13 48 -45 88 -85 104 -42 18 -43 18 -79 -5z"/>
        <path d="M1019 1873 c-14 -16 -42 -49 -62 -75 -40 -51 -96 -75 -143 -64 -32 8
-30 -4 5 -38 22 -21 36 -27 54 -22 33 8 101 76 129 128 27 51 48 98 44 98 -1
0 -13 -12 -27 -27z"/>
        <path d="M1166 1540 c-60 -19 -111 -88 -127 -173 -7 -42 -6 -78 5 -149 31
-189 125 -648 140 -675 8 -15 30 -43 50 -62 l36 -35 25 24 c46 43 65 100 80
241 8 74 27 220 41 324 35 257 26 355 -42 434 -52 60 -142 91 -208 71z"/>
    </g>
</svg>
