<?xml version="1.0" standalone="no"?>
<!DOCTYPE svg PUBLIC "-//W3C//DTD SVG 20010904//EN"
        "http://www.w3.org/TR/2001/REC-SVG-20010904/DTD/svg10.dtd">
<svg xmlns="http://www.w3.org/2000/svg"
     width="1022.000000pt" height="1024.000000pt" viewBox="0 0 1022.000000 1024.000000"
     preserveAspectRatio="xMidYMid meet">

    <g transform="translate(0.000000,1024.000000) scale(0.100000,-0.100000)"
       fill="#000000" stroke="none">
        <path d="M8900 10166 c-85 -40 -819 -394 -1630 -786 -811 -392 -1537 -742
-1613 -778 l-137 -64 -23 28 c-86 108 -467 596 -485 621 l-22 31 413 400 c554
537 626 612 591 612 -12 0 -312 -282 -751 -707 -150 -145 -277 -263 -283 -263
-10 0 -725 394 -747 412 -9 7 21 73 112 251 135 265 144 287 122 287 -19 0
-36 -31 -177 -303 -88 -170 -116 -217 -129 -213 -9 3 -227 55 -486 116 -258
61 -473 114 -476 118 -3 4 -2 69 4 145 7 100 7 141 -1 149 -18 18 -30 -26 -42
-157 -6 -65 -13 -121 -16 -124 -9 -9 -267 -21 -513 -23 l-245 -3 -32 143 c-34
148 -39 162 -55 162 -15 0 -11 -49 17 -185 14 -70 22 -131 17 -135 -4 -4 -147
-38 -318 -75 -170 -37 -346 -76 -390 -87 -44 -11 -89 -22 -100 -25 -17 -4 -35
20 -110 142 -178 289 -235 368 -235 323 0 -8 66 -124 146 -259 80 -134 148
-249 151 -256 4 -10 -466 -715 -502 -752 -16 -16 -48 6 -340 238 -338 268
-587 461 -596 461 -41 0 39 -71 493 -433 218 -174 399 -320 401 -325 6 -9
-147 -759 -156 -769 -4 -3 -112 31 -239 76 -368 131 -437 153 -455 147 -13 -5
-14 -9 -4 -19 6 -7 163 -66 349 -133 l337 -121 2 -144 c2 -79 0 -272 -5 -429
l-7 -285 -95 -7 c-52 -4 -203 -14 -335 -22 -245 -15 -280 -20 -268 -39 4 -7
77 -7 232 -1 124 5 282 9 351 9 l125 0 37 -305 c21 -168 37 -325 35 -349 l-2
-44 -300 -127 c-165 -69 -340 -144 -389 -165 -83 -38 -105 -56 -73 -63 8 -2
183 68 391 154 207 87 378 155 381 153 4 -5 16 -189 30 -481 l7 -126 -339
-253 c-403 -301 -513 -388 -513 -406 0 -7 3 -13 8 -13 7 1 179 125 598 434
141 103 260 184 264 180 6 -7 465 -1104 533 -1274 14 -35 104 137 -1005 -1915
-328 -607 -391 -726 -383 -733 9 -9 21 8 91 133 98 176 672 1230 1043 1916
l322 597 87 22 c227 57 1186 280 1204 280 20 0 20 -4 14 -112 -3 -62 -16 -381
-28 -708 l-21 -595 -37 -45 c-1289 -1576 -2640 -3242 -2640 -3254 0 -31 78 62
1105 1319 1312 1606 1526 1866 1579 1914 14 14 26 31 26 38 0 8 105 120 233
251 1087 1109 1210 1232 1233 1232 19 0 24 5 24 27 0 32 9 43 226 303 117 140
254 286 432 463 143 141 265 257 271 257 6 0 17 13 23 29 28 64 768 831 822
851 19 7 26 15 22 25 -5 15 27 57 546 700 l194 240 1230 893 c2166 1574 2200
1599 2190 1609 -3 3 -25 -7 -48 -22 -111 -73 -764 -544 -2286 -1649 -571 -414
-1047 -758 -1058 -763 -10 -6 -64 -13 -119 -16 -55 -4 -256 -24 -447 -47 -314
-36 -418 -46 -418 -37 0 2 -50 176 -110 387 -86 299 -117 395 -140 428 -17 23
-30 46 -30 51 0 4 105 59 233 121 233 113 408 198 1942 937 1329 641 1335 644
1335 665 0 10 -3 18 -7 18 -5 0 -78 -34 -163 -74z m-5776 -318 c-3 -24 -11
-110 -18 -192 -8 -93 -18 -151 -25 -156 -12 -7 -80 -14 -436 -46 -141 -12
-161 -12 -171 1 -13 18 -97 395 -90 403 5 5 288 18 516 25 58 1 133 4 167 5
l63 2 -6 -42z m161 6 c240 -53 831 -197 839 -204 5 -5 -40 -103 -102 -222 -87
-169 -114 -212 -128 -210 -21 4 -747 253 -753 259 -5 4 18 347 26 380 4 17 10
22 27 18 11 -3 53 -12 91 -21z m-903 -211 c25 -115 45 -209 44 -210 -1 -2 -76
-14 -167 -29 -325 -51 -504 -82 -521 -89 -13 -5 -35 25 -111 152 -52 87 -97
168 -101 180 -6 20 -2 24 51 39 87 25 704 163 734 163 26 1 26 -1 71 -206z
m2403 -338 c71 -40 131 -77 133 -83 2 -8 -410 -412 -422 -412 -6 0 -211 141
-403 277 -73 52 -133 101 -133 109 0 15 125 270 186 380 l35 62 237 -131 c130
-71 295 -163 367 -202z m-3188 130 c48 -77 91 -151 96 -165 8 -21 -14 -76
-148 -365 -86 -187 -161 -344 -165 -349 -5 -5 -48 22 -102 64 -51 41 -139 110
-195 154 -60 47 -101 86 -98 94 3 7 116 178 251 379 228 338 248 365 261 347
8 -10 53 -82 100 -159z m1483 -27 c0 -24 -7 -140 -16 -258 -12 -156 -20 -218
-30 -226 -8 -6 -92 -19 -186 -28 -95 -9 -190 -19 -210 -21 -20 -3 -39 -1 -42
4 -8 12 -118 513 -114 517 4 3 472 46 576 53 19 1 22 -4 22 -41z m431 -103
c199 -69 365 -128 368 -131 7 -7 -217 -454 -227 -454 -18 0 -548 172 -557 181
-6 6 -3 91 8 232 20 253 26 297 37 297 4 0 171 -56 371 -125z m-1071 81 c0 -3
23 -111 50 -240 28 -130 50 -249 50 -264 0 -28 -4 -31 -92 -62 -51 -17 -149
-52 -218 -77 l-124 -45 -21 24 c-28 33 -325 522 -325 536 0 21 37 31 261 67
123 20 258 42 299 50 81 14 120 17 120 11z m-602 -348 c134 -221 222 -375 222
-389 0 -23 -310 -400 -323 -393 -7 4 -83 63 -169 132 l-158 124 14 31 c57 134
305 657 310 657 3 0 49 -73 104 -162z m3275 -50 c247 -311 352 -449 352 -461
0 -11 -573 -302 -609 -309 -13 -2 -56 64 -178 272 l-160 275 213 207 c118 114
217 207 222 208 4 0 76 -87 160 -192z m-921 -21 c141 -97 259 -181 262 -186 3
-5 -75 -88 -175 -185 l-180 -176 -32 17 c-51 26 -358 245 -364 259 -5 13 218
455 227 451 3 -1 121 -82 262 -180z m-1152 -104 c-1 -57 -31 -318 -37 -323 -9
-8 -215 -30 -285 -30 l-46 0 -16 73 c-38 173 -47 230 -39 238 9 9 306 46 381
48 23 1 42 -2 42 -6z m318 -95 c145 -47 257 -88 260 -96 5 -15 -92 -215 -113
-232 -9 -7 -339 59 -429 86 -17 6 -18 14 -12 128 9 150 16 196 29 196 6 0 125
-37 265 -82z m-2261 -60 c179 -142 253 -207 253 -224 0 -19 -189 -526 -201
-538 -8 -8 -322 96 -341 113 -4 3 27 170 67 371 41 201 75 368 75 373 0 18 27
1 147 -95z m1480 42 c27 -115 51 -265 45 -271 -4 -4 -73 -41 -154 -83 l-146
-77 -58 93 c-88 142 -138 239 -128 248 5 4 90 37 189 73 99 35 187 67 195 70
33 12 45 1 57 -53z m1984 -142 c40 -68 110 -188 156 -267 l83 -145 -43 -25
c-45 -27 -398 -194 -433 -205 -20 -6 -27 6 -84 141 -34 81 -75 177 -90 213
l-27 65 176 172 c97 95 179 172 183 173 3 0 39 -55 79 -122z m-833 10 c106
-72 312 -221 317 -229 7 -11 -57 -81 -146 -160 l-68 -60 -140 121 c-78 66
-141 123 -141 126 0 14 119 234 127 234 2 0 25 -14 51 -32z m-1535 -168 c48
-80 87 -152 87 -161 0 -16 -234 -269 -249 -269 -9 0 -228 176 -236 191 -9 13
2 28 164 232 68 86 130 156 135 154 6 -2 50 -68 99 -147z m807 -15 c0 -54 -19
-247 -24 -253 -2 -1 -55 -5 -117 -9 l-115 -6 -28 142 c-16 78 -26 145 -22 149
7 6 189 27 274 31 l32 1 0 -55z m315 -6 c83 -18 154 -35 158 -39 8 -7 -77
-187 -105 -222 -12 -15 -26 -16 -176 -3 -90 7 -164 14 -166 16 -2 2 3 63 10
134 7 72 13 140 13 152 1 21 2 21 59 8 31 -7 125 -28 207 -46z m2313 -201 c79
-270 162 -572 162 -591 0 -20 -9 -22 -165 -42 -432 -54 -515 -58 -515 -22 0
14 -188 482 -216 539 -13 26 -24 51 -24 56 0 5 53 34 118 65 64 31 207 99 317
152 l200 96 36 -40 c31 -35 43 -65 87 -213z m-4060 104 l155 -125 -7 -116 c-9
-145 -30 -328 -39 -337 -7 -7 -439 143 -463 161 -16 11 16 114 171 543 6 17 2
20 183 -126z m1107 -40 c15 -67 25 -128 22 -135 -2 -7 -50 -36 -105 -65 l-100
-53 -55 88 c-68 111 -90 153 -83 161 4 3 68 38 144 78 92 49 139 68 143 61 4
-7 19 -67 34 -135z m996 -39 c71 -59 129 -110 129 -114 0 -4 -41 -46 -91 -93
l-91 -87 -37 28 c-20 16 -67 51 -103 78 -38 28 -67 58 -68 68 0 30 106 227
123 227 5 0 67 -48 138 -107z m497 -83 c39 -91 77 -181 85 -201 l15 -36 -124
-61 -124 -62 -80 160 -80 161 112 108 c62 60 116 106 119 103 4 -4 38 -81 77
-172z m-1779 -46 l72 -116 -28 -37 c-42 -56 -135 -151 -147 -151 -14 0 -198
151 -203 167 -4 11 214 253 228 253 4 0 39 -52 78 -116z m-493 -56 c69 -55
114 -98 114 -109 0 -30 -52 -293 -60 -302 -4 -4 -56 10 -116 31 -106 38 -109
40 -107 68 6 75 35 362 39 382 2 12 7 22 11 22 3 0 57 -41 119 -92z m2954 41
c32 -62 232 -570 227 -575 -6 -7 -609 -75 -614 -70 -5 5 -74 232 -107 354
l-25 93 242 120 c133 65 245 119 249 119 4 0 17 -18 28 -41z m-1884 -95 c-3
-64 -10 -124 -15 -133 -9 -15 -120 -45 -130 -35 -9 8 -61 259 -56 272 3 8 34
12 106 12 l102 0 -7 -116z m268 106 c48 -5 91 -12 94 -15 3 -3 -12 -41 -33
-85 -35 -72 -43 -81 -75 -90 -112 -29 -200 -50 -210 -50 -8 0 -10 28 -5 103 9
156 5 147 78 147 34 0 102 -5 151 -10z m-500 -92 c31 -142 38 -179 34 -183 -1
-2 -37 -6 -78 -9 l-75 -7 -48 82 c-39 67 -46 85 -35 95 18 17 160 94 174 94 7
0 19 -33 28 -72z m1168 -79 c37 -74 67 -140 68 -146 0 -7 -49 -37 -108 -67
l-108 -54 -58 115 -57 116 88 89 c48 48 92 87 97 85 5 -2 40 -64 78 -138z
m-430 69 c44 -35 88 -69 96 -76 14 -11 6 -23 -68 -97 -47 -47 -88 -85 -92 -85
-4 0 -32 37 -62 82 l-55 82 42 78 c23 43 46 78 50 78 5 0 44 -28 89 -62z
m-2512 -62 c84 -30 158 -60 165 -68 12 -12 35 -431 35 -624 l0 -71 -122 -6
c-66 -4 -152 -7 -190 -7 l-68 0 0 288 c0 311 9 542 20 542 4 0 76 -24 160 -54z
m1585 -89 c15 -26 24 -55 21 -65 -3 -10 -30 -41 -59 -70 l-53 -53 -62 48 c-33
26 -61 51 -62 54 0 3 35 46 77 94 l76 87 18 -23 c10 -13 30 -45 44 -72z m-449
41 c97 -73 164 -132 164 -144 0 -18 -59 -174 -72 -190 -6 -9 -33 -3 -96 21
-69 25 -88 36 -90 54 -3 19 30 217 44 264 7 22 15 22 50 -5z m1079 -120 c-26
-51 -49 -95 -52 -97 -4 -6 -79 -3 -114 5 -26 5 -27 6 -22 67 3 34 7 64 9 65 4
6 219 59 223 56 2 -2 -18 -45 -44 -96z m-1783 13 c261 -93 278 -101 278 -118
0 -15 -91 -366 -111 -430 -12 -38 -17 -40 -206 -48 l-141 -7 -6 94 c-4 51 -12
204 -19 341 -10 197 -9 246 0 242 7 -2 100 -36 205 -74z m2269 -27 c28 -58 49
-107 47 -109 -16 -14 -191 -94 -198 -90 -4 3 -25 35 -45 71 l-37 66 83 84 c46
46 87 84 92 84 5 0 31 -48 58 -106z m652 29 c40 -119 97 -313 97 -333 0 -18
-46 -27 -241 -46 l-66 -6 -22 128 c-38 219 -38 217 -2 243 39 28 171 90 192
91 11 0 24 -24 42 -77z m-975 -25 c18 -26 32 -51 32 -57 0 -5 -25 -31 -55 -57
l-56 -47 -49 23 c-28 13 -50 25 -50 28 0 6 91 175 103 189 10 14 18 6 75 -79z
m-388 18 c0 -13 -3 -38 -6 -55 -6 -27 -11 -31 -38 -31 -42 0 -64 18 -72 57 -6
29 -4 33 22 38 16 4 34 8 39 10 6 2 20 4 33 4 17 1 22 -5 22 -23z m-165 -8 c2
-7 6 -26 7 -43 3 -25 -2 -33 -31 -47 -43 -21 -54 -16 -90 42 l-30 49 32 4 c70
8 108 7 112 -5z m-143 -85 l29 -51 -46 -37 -45 -37 -46 37 -46 38 53 53 c30
30 58 53 63 51 5 -2 22 -26 38 -54z m1362 38 c12 -18 56 -315 48 -323 -9 -9
-138 -27 -198 -28 l-41 0 -17 122 c-12 92 -13 124 -4 135 11 13 185 103 200
103 4 0 9 -4 12 -9z m-1635 -48 l59 -47 -35 -69 c-33 -66 -36 -69 -63 -63 -16
3 -45 12 -64 20 l-36 15 29 78 c40 106 43 113 47 113 3 0 31 -21 63 -47z
m4391 -11 c0 -9 -687 -862 -730 -906 l-28 -29 -81 14 c-54 8 -80 17 -77 24 2
7 8 188 12 404 4 215 10 391 13 392 9 0 875 106 884 108 4 0 7 -3 7 -7z
m-4917 -42 c68 -23 97 -38 97 -49 -1 -29 -47 -351 -51 -355 -2 -2 -70 -7 -152
-11 -120 -5 -146 -4 -142 7 2 7 23 81 45 163 68 249 80 287 93 282 7 -2 56
-19 110 -37z m1601 -41 l27 -47 -33 -20 c-60 -36 -70 -36 -113 9 l-40 40 53
51 c60 57 52 60 106 -33z m-626 33 c2 -23 -2 -33 -19 -43 -20 -10 -25 -9 -41
11 -25 31 -23 47 10 58 38 14 47 10 50 -26z m110 5 c3 -27 1 -28 -30 -25 -28
3 -34 7 -36 31 -3 27 -1 28 30 25 28 -3 34 -7 36 -31z m118 13 c39 0 55 -23
32 -46 -11 -11 -24 -12 -54 -6 -33 7 -39 12 -42 36 -3 23 0 28 13 22 9 -3 32
-6 51 -6z m143 -47 c17 -10 31 -21 31 -24 0 -3 -12 -17 -27 -31 l-28 -27 -28
25 c-28 24 -28 26 -13 49 20 30 25 30 65 8z m555 -10 c13 -63 28 -205 22 -210
-7 -7 -89 -22 -127 -22 -23 -1 -30 9 -62 77 -21 43 -37 83 -37 88 0 11 163 92
187 93 6 1 14 -11 17 -26z m-1234 -13 l35 -30 -43 -41 c-36 -34 -48 -40 -70
-34 -15 4 -28 8 -30 10 -8 7 51 125 62 125 7 0 27 -13 46 -30z m207 4 c16 -25
16 -27 -3 -41 -40 -30 -49 -32 -74 -12 l-25 19 35 30 c19 17 38 30 42 30 4 0
15 -12 25 -26z m-547 -196 l5 -136 -74 -6 c-41 -3 -94 -6 -119 -6 l-44 0 5 43
c3 23 14 101 23 174 l16 132 92 -33 91 -32 5 -136z m755 162 c0 -22 -39 -19
-43 3 -3 15 1 18 20 15 12 -2 23 -10 23 -18z m2883 -367 l-3 -388 -53 1 c-95
3 -433 67 -442 84 -15 28 -162 590 -157 603 3 12 517 83 615 86 l42 1 -2 -387z
m-2770 368 c10 -6 10 -10 -2 -20 -18 -15 -66 -4 -66 15 0 15 46 19 68 5z
m-198 -16 c0 -8 -9 -15 -20 -15 -20 0 -26 11 -13 23 12 13 33 7 33 -8z m470
-52 c0 -7 -16 -21 -35 -30 -34 -16 -35 -16 -60 7 l-25 24 32 33 32 33 28 -27
c15 -15 28 -33 28 -40z m-687 -7 c-26 -46 -52 -55 -97 -35 l-25 12 40 33 c39
32 41 33 65 18 13 -9 21 -21 17 -28z m140 30 c7 -17 -11 -36 -35 -36 -22 0
-23 8 -1 32 19 22 29 23 36 4z m357 -1 c13 -16 6 -35 -15 -35 -12 0 -25 21
-25 41 0 14 26 11 40 -6z m413 -71 c21 -42 37 -78 35 -79 -2 -2 -33 -6 -69
-10 l-66 -7 -21 61 -21 61 47 25 c26 13 49 24 52 25 3 0 23 -34 43 -76z
m-1230 41 c41 -17 41 -15 27 -105 -18 -115 -15 -110 -65 -110 l-45 0 0 121 0
121 23 -6 c13 -3 40 -12 60 -21z m617 -11 c0 -8 -4 -14 -10 -14 -5 0 -10 9
-10 21 0 11 5 17 10 14 6 -3 10 -13 10 -21z m87 11 c2 -6 -2 -18 -9 -28 -18
-23 -42 -7 -33 22 7 22 35 26 42 6z m2091 2 c13 -15 164 -588 157 -595 -4 -4
-747 116 -751 121 -1 2 -20 269 -27 377 l-2 35 95 12 c135 18 482 61 501 62 9
1 21 -5 27 -12z m-2238 -18 c0 -6 -4 -7 -10 -4 -5 3 -10 11 -10 16 0 6 5 7 10
4 6 -3 10 -11 10 -16z m-172 -31 c4 -20 -29 -40 -47 -29 -10 7 -11 13 -1 30
13 25 43 24 48 -1z m112 7 c0 -8 -7 -15 -15 -15 -16 0 -20 12 -8 23 11 12 23
8 23 -8z m260 -16 c-10 -17 -30 -27 -30 -13 0 15 22 44 31 39 5 -4 5 -13 -1
-26z m124 12 c16 -17 16 -19 -6 -24 -25 -7 -54 15 -44 32 11 16 31 13 50 -8z
m-766 -84 l3 -87 -31 0 c-35 0 -36 5 -18 111 9 55 14 69 27 67 13 -3 17 -20
19 -91z m946 60 c30 -74 30 -77 -3 -77 -21 0 -39 10 -60 32 -16 18 -27 36 -24
41 4 7 57 34 70 37 2 0 9 -15 17 -33z m-819 -17 c23 -9 25 -13 19 -52 -9 -67
-10 -68 -59 -68 l-45 0 0 63 c0 35 3 67 7 71 8 7 34 3 78 -14z m1889 -32 c13
-116 26 -320 21 -328 -9 -15 -46 -12 -210 18 l-150 27 3 95 c1 52 5 119 9 148
6 61 -3 56 163 76 172 21 157 24 164 -36z m-1694 27 c0 -8 -7 -15 -16 -15 -14
0 -14 3 -4 15 7 8 14 15 16 15 2 0 4 -7 4 -15z m366 -14 c-4 -6 -14 -11 -22
-11 -12 0 -13 4 -3 21 7 14 14 18 21 11 6 -6 7 -15 4 -21z m-266 9 c0 -5 -2
-10 -4 -10 -3 0 -8 5 -11 10 -3 6 -1 10 4 10 6 0 11 -4 11 -10z m410 -26 c21
-21 22 -27 10 -34 -30 -19 -61 -9 -73 22 -4 11 0 21 11 27 24 14 26 14 52 -15z
m812 -79 c-3 -87 -11 -174 -18 -186 -3 -5 -57 2 -191 26 l-33 6 0 109 0 109
43 6 c94 14 173 23 187 21 12 -1 14 -18 12 -91z m-1427 39 c0 -28 -4 -39 -15
-39 -17 0 -24 27 -16 62 10 37 31 22 31 -23z m513 3 c2 -11 -3 -17 -16 -17
-26 0 -34 11 -20 27 14 17 32 12 36 -10z m-438 1 c0 -7 -5 -20 -10 -28 -8 -12
-10 -9 -10 13 0 15 5 27 10 27 6 0 10 -6 10 -12z m1060 -82 c0 -52 -3 -97 -8
-100 -7 -4 -73 6 -131 19 -22 6 -23 8 -16 72 4 37 9 72 12 79 5 13 36 19 106
22 l37 2 0 -94z m-975 64 c18 -7 18 -8 -7 -15 -28 -7 -48 -1 -48 16 0 11 27
11 55 -1z m780 -57 c-4 -38 -8 -69 -10 -71 -2 -2 -30 0 -64 4 l-61 7 0 58 0
58 48 4 c107 8 95 16 87 -60z m-175 -2 c0 -46 -1 -48 -25 -43 -34 6 -48 33
-35 66 7 19 17 26 35 26 23 0 25 -3 25 -49z m-110 4 c0 -34 -1 -34 -32 -28
-18 3 -37 9 -42 14 -14 13 1 37 26 42 46 9 48 8 48 -28z m-120 7 c0 -14 -11
-21 -26 -15 -21 8 -17 23 6 23 11 0 20 -4 20 -8z m-460 -27 c0 -8 -4 -15 -10
-15 -5 0 -10 7 -10 15 0 8 5 15 10 15 6 0 10 -7 10 -15z m-140 -24 c23 -57
-24 -72 -61 -20 -18 26 -19 33 -8 40 29 18 56 10 69 -20z m77 14 c1 -5 -2 -17
-7 -25 -9 -13 -11 -13 -20 0 -15 23 -12 42 7 38 9 -2 18 -7 20 -13z m-308 -66
c13 -39 19 -75 14 -80 -4 -4 -33 -19 -65 -33 -68 -30 -68 -30 -68 89 l0 84 33
4 c17 2 39 5 48 5 10 2 22 -19 38 -69z m127 26 c14 -25 25 -47 23 -49 -10 -9
-69 -36 -78 -36 -10 0 -41 83 -41 112 0 14 8 18 35 18 30 0 37 -5 61 -45z
m-292 13 c3 -13 6 -62 6 -109 l0 -87 -106 -46 c-59 -26 -109 -45 -112 -42 -8
9 -25 276 -18 284 6 6 60 11 197 20 20 2 28 -4 33 -20z m956 4 c0 -15 -22 -30
-36 -25 -11 4 -12 9 -3 19 12 15 39 19 39 6z m-1235 -14 c3 -7 6 -78 7 -157
l3 -145 -75 -32 c-136 -59 -121 -68 -168 103 -67 242 -64 222 -39 228 25 5
100 10 200 13 46 1 69 -2 72 -10z m840 -8 c-3 -5 -12 -10 -18 -10 -7 0 -6 4 3
10 19 12 23 12 15 0z m518 3 c9 -8 -42 -63 -58 -63 -6 0 -20 6 -30 14 -19 14
-19 15 -1 35 19 20 74 29 89 14z m-1696 -20 c4 -10 30 -98 58 -196 35 -121 48
-180 41 -185 -17 -11 -401 -170 -404 -167 -2 2 -9 87 -36 477 -6 78 -9 75 99
81 183 10 235 7 242 -10z m1819 -8 c6 -15 -22 -112 -35 -120 -5 -2 -29 9 -55
25 l-47 30 32 40 c26 32 39 40 66 40 20 0 36 -6 39 -15z m-2202 -67 c13 -152
26 -356 26 -424 l0 -72 -95 -41 c-52 -23 -126 -55 -165 -71 l-70 -29 -5 22
c-11 51 -78 657 -73 662 5 6 210 21 309 24 l67 1 6 -72z m1902 44 c-4 -3 -14
2 -24 12 -16 18 -16 18 6 6 13 -6 21 -14 18 -18z m-405 5 c-1 -12 -15 -9 -19
4 -3 6 1 10 8 8 6 -3 11 -8 11 -12z m132 -2 c-4 -15 -36 -12 -41 3 -3 9 3 13
19 10 13 -1 23 -7 22 -13z m710 4 c20 -5 37 -15 37 -22 0 -13 -48 -178 -52
-183 -6 -5 -118 68 -118 76 0 5 8 31 18 57 11 26 22 56 25 66 7 19 35 22 90 6z
m-899 -25 c7 -19 -10 -44 -29 -44 -12 0 -25 21 -25 40 0 7 15 14 41 19 4 0 10
-6 13 -15z m260 10 c20 -8 11 -24 -15 -24 -19 0 -25 11 -12 23 8 8 8 8 27 1z
m80 -10 c25 -9 19 -24 -9 -24 -16 0 -25 6 -25 15 0 16 9 19 34 9z m74 -19 c-3
-3 -9 2 -12 12 -6 14 -5 15 5 6 7 -7 10 -15 7 -18z m672 14 c27 -6 50 -16 50
-22 0 -16 -68 -230 -79 -246 -7 -11 -21 -7 -70 23 -34 21 -61 40 -61 43 0 10
41 163 50 188 11 29 31 31 110 14z m-550 -14 c10 -12 10 -19 2 -27 -13 -13
-42 6 -42 28 0 19 24 18 40 -1z m-405 -7 c28 -13 31 -26 12 -52 -13 -17 -15
-16 -40 14 -38 44 -25 62 28 38z m-215 -19 c15 -27 8 -42 -28 -68 l-30 -21
-22 35 c-12 20 -21 37 -19 39 12 10 66 35 76 36 7 0 17 -9 23 -21z m1371 6
c139 -25 132 -22 125 -53 -18 -74 -109 -342 -117 -342 -5 0 -53 27 -108 61
l-99 61 49 139 c27 77 49 142 49 145 0 6 11 5 101 -11z m-1181 -103 c0 -18
-61 -142 -69 -142 -4 0 -17 43 -30 95 l-23 95 24 19 23 20 38 -37 c20 -20 37
-42 37 -50z m160 53 c0 -32 -2 -35 -29 -35 -43 0 -61 9 -54 28 11 31 25 42 54
42 26 0 29 -3 29 -35z m210 20 c9 -11 10 -22 3 -38 -10 -21 -10 -21 -26 10
-10 18 -17 34 -17 38 0 11 28 4 40 -10z m208 -43 l22 -17 -27 -33 -28 -33 -49
50 c-49 49 -49 51 -31 71 l18 20 36 -21 c20 -11 46 -28 59 -37z m-307 38 c18
-10 54 -68 47 -76 -5 -4 -119 13 -124 19 -2 2 -1 18 2 35 5 26 12 32 31 32 13
0 33 -5 44 -10z m-569 -57 l17 -29 -70 -53 c-38 -28 -76 -54 -83 -57 -10 -4
-18 13 -30 62 -8 38 -14 69 -12 71 1 1 31 16 67 32 71 32 77 31 111 -26z
m1833 31 c82 -15 155 -29 161 -33 13 -7 -193 -472 -212 -478 -6 -2 -62 28
-125 66 -112 68 -114 69 -113 105 2 46 113 366 127 366 7 0 79 -12 162 -26z
m-1065 -75 l43 -51 -24 -19 c-37 -28 -52 -23 -78 26 -20 38 -22 50 -13 70 6
14 15 25 20 25 5 0 28 -23 52 -51z m-616 -6 c8 -27 22 -76 31 -110 15 -59 14
-65 -3 -100 l-19 -36 -16 44 c-9 24 -30 81 -46 126 l-30 83 26 20 c14 11 29
20 34 20 4 0 14 -21 23 -47z m2261 -19 c176 -30 335 -58 353 -61 61 -10 67 8
-154 -466 -80 -171 -147 -313 -149 -315 -2 -3 -118 67 -257 154 -317 198 -378
237 -378 247 0 12 197 446 215 474 9 13 23 23 33 23 9 0 161 -25 337 -56z
m-2617 -26 c16 -55 18 -75 9 -86 -11 -14 -110 -91 -134 -105 -15 -9 -109 161
-96 174 8 8 181 87 194 88 3 1 15 -31 27 -71z m656 52 c4 -5 5 -40 1 -78 l-7
-71 -36 -5 c-21 -3 -65 -8 -100 -12 l-63 -6 37 73 c61 122 60 121 113 113 25
-3 50 -10 55 -14z m509 8 c12 -6 39 -22 60 -35 l37 -23 -37 -50 c-21 -28 -40
-50 -43 -50 -3 0 -28 22 -54 49 l-49 50 27 35 c31 41 29 40 59 24z m-388 -23
c22 -3 48 -8 58 -11 20 -6 72 -82 62 -92 -7 -7 -104 -20 -162 -21 l-43 -1 0
70 c0 68 1 70 23 66 12 -3 40 -8 62 -11z m-507 -97 c16 -46 38 -109 48 -141
l18 -58 -35 -71 -35 -71 -93 146 c-51 81 -91 151 -89 156 4 11 140 121 150
121 3 0 19 -37 36 -82z m837 -89 c-83 -36 -91 -35 -114 10 -12 22 -21 44 -21
49 0 5 17 21 38 35 l37 26 50 -52 50 -51 -40 -17z m251 90 c30 -17 54 -35 54
-41 0 -13 -61 -97 -87 -121 -18 -16 -21 -15 -49 16 -71 77 -69 68 -23 125 22
29 43 52 46 52 3 0 30 -14 59 -31z m-1618 -6 c23 -32 82 -149 82 -161 0 -10
-164 -132 -177 -132 -5 0 -37 53 -71 119 l-62 118 97 41 c54 23 101 41 105 42
4 0 15 -12 26 -27z m3576 -29 c116 -20 212 -37 214 -39 8 -8 -43 -87 -237
-369 -115 -166 -236 -343 -271 -393 -35 -51 -69 -93 -75 -93 -9 0 -229 131
-242 144 -3 2 309 673 346 744 12 24 29 42 38 42 9 0 111 -16 227 -36z m-2369
-51 c14 -21 25 -40 25 -44 0 -3 -57 -9 -127 -13 -71 -4 -136 -9 -145 -12 -15
-5 -18 1 -18 35 0 23 3 41 8 42 4 0 52 6 107 13 55 7 105 14 112 15 7 0 24
-16 38 -36z m-802 -143 l100 -154 -43 -85 -42 -86 -28 34 c-42 49 -230 328
-230 339 0 13 122 112 134 108 6 -1 55 -71 109 -156z m1349 144 c59 -30 168
-104 168 -113 0 -13 -139 -191 -149 -191 -4 0 -45 40 -90 90 l-82 90 56 70
c32 38 59 70 62 70 2 0 18 -7 35 -16z m-842 -29 c0 -20 -6 -37 -12 -39 -7 -3
-61 -7 -120 -10 -104 -6 -108 -6 -108 13 0 40 29 48 228 70 7 1 12 -12 12 -34z
m-1113 -90 c35 -61 63 -115 63 -121 0 -11 -464 -364 -479 -364 -4 0 -11 15
-14 33 -3 17 -20 112 -37 211 -17 98 -29 180 -27 183 13 12 404 172 417 170 8
-1 43 -52 77 -112z m4191 96 c10 -6 -55 -79 -226 -257 -132 -137 -266 -274
-297 -304 l-58 -55 45 65 c25 36 107 155 183 265 76 110 156 224 178 254 l39
53 61 -7 c34 -3 68 -10 75 -14z m-2506 -48 c26 -26 48 -54 48 -63 0 -17 -128
-112 -141 -105 -15 10 -91 156 -84 163 5 6 112 49 125 51 2 1 26 -20 52 -46z
m-178 -112 c38 -74 43 -90 30 -95 -19 -7 -175 -6 -304 3 l-95 6 4 75 c2 41 5
77 8 80 5 5 147 16 244 18 l67 2 46 -89z m-404 -11 l0 -80 -152 6 c-84 4 -157
10 -161 14 -9 8 34 100 55 118 14 11 68 17 191 20 l67 2 0 -80z m-650 -116
c73 -102 134 -193 137 -203 4 -16 -90 -221 -101 -221 -4 0 -230 302 -314 419
-18 25 -32 50 -32 57 0 11 156 134 171 134 3 0 66 -83 139 -186z m1818 115
c53 -34 105 -66 115 -73 9 -6 17 -16 17 -22 0 -6 -46 -64 -101 -127 -88 -101
-104 -115 -118 -104 -26 18 -171 173 -171 182 0 7 152 205 158 205 2 0 47 -28
100 -61z m-406 -60 c40 -44 73 -85 73 -91 0 -13 -222 -101 -234 -93 -8 5 -91
142 -91 150 0 8 154 115 166 115 7 0 46 -36 86 -81z m-2384 -61 c57 -307 58
-315 37 -338 -38 -42 -356 -273 -364 -264 -8 8 -13 74 -37 474 l-6 105 158 67
c88 36 166 67 175 67 13 1 21 -21 37 -111z m647 -16 c16 -20 99 -128 183 -240
124 -164 152 -207 146 -225 -8 -28 -139 -286 -156 -310 -13 -17 -27 -9 -198
110 -102 71 -254 177 -338 237 -146 105 -152 110 -135 127 35 33 447 339 457
339 6 0 24 -17 41 -38z m858 21 l107 -6 0 -82 0 -82 -211 -8 c-115 -4 -212 -5
-215 -2 -3 3 15 46 40 96 l46 91 64 0 c34 0 111 -3 169 -7z m605 -31 c14 -17
62 -108 62 -116 0 -8 -120 -15 -322 -20 l-198 -4 0 78 c0 42 3 79 6 83 3 3
103 3 222 1 189 -4 219 -7 230 -22z m1177 -161 c165 -104 300 -195 300 -202 0
-14 -443 -261 -460 -257 -12 3 -376 383 -377 394 -2 11 216 254 227 253 6 0
145 -85 310 -188z m-691 27 l89 -92 -99 -94 c-54 -51 -115 -106 -135 -122
l-36 -29 -77 144 c-43 79 -80 152 -82 162 -4 15 7 25 53 46 73 33 175 75 188
76 6 1 50 -40 99 -91z m-305 -197 c50 -93 91 -172 91 -175 0 -4 -37 -4 -82 -1
-46 3 -213 15 -372 25 -159 11 -291 21 -293 23 -5 5 13 266 18 272 3 2 117 8
254 13 138 5 260 10 272 10 18 2 36 -25 112 -167z m-683 72 c-3 -42 -6 -102
-6 -135 l0 -58 -55 0 c-70 0 -488 30 -494 36 -2 2 20 53 49 113 l53 110 131 4
c72 1 176 4 230 5 l99 2 -7 -77z m1294 -193 c100 -105 181 -192 179 -194 -9
-9 -290 -182 -354 -218 l-70 -40 -17 22 c-10 12 -58 102 -107 200 l-90 177
132 121 c73 67 135 121 138 122 3 0 88 -86 189 -190z m-2534 -76 c396 -275
413 -288 414 -304 0 -8 -36 -89 -79 -180 -95 -197 -103 -217 -91 -225 13 -8
47 49 137 229 l78 156 45 0 c53 0 618 -47 674 -56 l38 -6 -7 -157 c-13 -322
-26 -526 -33 -533 -4 -3 -52 -18 -107 -32 -196 -49 -1125 -266 -1141 -266 -16
0 8 49 225 455 50 94 91 176 91 183 0 41 -42 -26 -200 -316 -173 -318 -194
-352 -206 -339 -14 14 -524 1250 -524 1271 0 6 33 36 73 66 136 102 329 240
337 240 4 0 128 -84 276 -186z m3395 70 c59 -36 113 -71 118 -78 8 -9 -46 -68
-199 -222 -115 -115 -214 -209 -220 -209 -16 0 -301 308 -293 316 8 7 475 258
482 259 2 0 52 -30 112 -66z m-2496 -19 c110 -8 228 -17 263 -20 l62 -7 0
-117 c0 -65 -3 -146 -7 -181 l-6 -63 -76 6 c-42 4 -204 16 -361 28 -157 12
-286 23 -288 25 -2 1 35 79 82 173 73 145 89 171 109 171 12 0 112 -7 222 -15z
m783 -55 c162 -11 309 -20 327 -20 28 0 37 -6 55 -37 33 -55 180 -339 180
-346 0 -13 -102 -7 -535 28 -236 19 -436 35 -444 35 -11 0 -13 28 -7 171 4 95
10 178 13 186 4 10 19 12 62 8 31 -3 188 -15 349 -25z m1221 -307 c83 -86 151
-160 151 -165 0 -9 -506 -261 -545 -272 -17 -5 -33 18 -112 161 l-91 167 26
17 c254 157 407 249 413 249 4 0 75 -71 158 -157z m-1094 -117 c226 -19 422
-32 437 -29 22 4 30 -2 61 -54 19 -32 60 -106 91 -164 l56 -107 -132 -31
c-257 -62 -1023 -240 -1060 -246 -35 -7 -38 -5 -38 16 0 68 21 561 26 607 l6
54 71 -7 c40 -3 257 -21 482 -39z m1174 -153 c-39 -51 -351 -423 -354 -423 -7
0 -117 201 -113 206 5 4 470 233 477 233 2 1 -3 -7 -10 -16z m-501 -256 c6 -7
34 -57 62 -110 l51 -98 -21 -27 c-38 -48 -1384 -1412 -1394 -1412 -6 0 -7 83
-2 228 9 313 34 960 42 1058 l6 82 166 40 c92 22 304 73 472 112 168 40 364
87 435 105 148 38 168 40 183 22z"/>
    </g>
</svg>
